<?xml version="1.0" encoding="utf-8"?>
<!-- Generator: Adobe Illustrator 23.0.2, SVG Export Plug-In . SVG Version: 6.00 Build 0)  -->
<svg version="1.1" id="Calque_1" xmlns="http://www.w3.org/2000/svg" xmlns:xlink="http://www.w3.org/1999/xlink" x="0px" y="0px"
	 viewBox="0 0 512 512" style="enable-background:new 0 0 512 512;" xml:space="preserve">
<style type="text/css">
	.st0{fill:#285767;stroke:#000000;stroke-width:3;stroke-miterlimit:10;}
	.st1{fill:#2E3B43;stroke:#000000;stroke-width:3;stroke-miterlimit:10;}
	.st2{fill:#3E4852;stroke:#000000;stroke-width:3;stroke-miterlimit:10;}
	.st3{fill:#F74B4B;stroke:#000000;stroke-width:3;stroke-miterlimit:10;}
	.st4{fill:#D14242;stroke:#000000;stroke-width:3;stroke-miterlimit:10;}
	.st5{fill:#E2E6E7;stroke:#000000;stroke-width:3;stroke-miterlimit:10;}
	.st6{fill:#C1CCD0;stroke:#000000;stroke-width:3;stroke-miterlimit:10;}
	.st7{fill:#AABBBF;stroke:#000000;stroke-width:3;stroke-miterlimit:10;}
	.st8{fill:#212D33;stroke:#000000;stroke-width:3;stroke-miterlimit:10;}
	.st9{fill:#F5D7B7;stroke:#000000;stroke-width:3;stroke-miterlimit:10;}
	.st10{fill:#E9CCAE;stroke:#000000;stroke-width:3;stroke-miterlimit:10;}
</style>
<path class="st0" d="M512,256c0,141.4-114.6,256-256,256S0,397.4,0,256S114.6,0,256,0S512,114.6,512,256z"/>
<path class="st1" d="M411.5,459.3c-16,12.3-33.5,22.7-52.2,30.9l46.3-284.9l46,7.5L411.5,459.3z"/>
<path class="st2" d="M405.6,205.3L422,208l-44.4,273.3c-6,3.2-12.1,6.2-18.3,9L405.6,205.3z"/>
<path class="st3" d="M446.4,12.3l27.6,4.5c3.9,0.6,6.5,4.3,5.9,8.1l-30.5,187.5l-41.6-6.8l30.5-187.5
	C438.9,14.3,442.5,11.7,446.4,12.3z"/>
<path class="st4" d="M459.1,21.6l-30.5,187.5l20.8,3.4L479.8,25c0.6-3.9-2-7.5-5.9-8.1l-20.8-3.4C457.1,14.1,459.7,17.7,459.1,21.6z
	"/>
<path class="st5" d="M385.9,189.6l89.4,14.5c6.8,1.1,11.3,7.5,10.2,14.2s-7.5,11.3-14.2,10.2L381.9,214c-6.8-1.1-11.3-7.5-10.2-14.2
	C372.8,193.1,379.2,188.5,385.9,189.6z"/>
<path class="st6" d="M469.1,215.6c-1.1,6.8-7.5,11.4-14.2,10.3l16.4,2.7c6.8,1.1,13.1-3.5,14.2-10.2c1.1-6.8-3.5-13.1-10.2-14.2
	l-16.4-2.7C465.6,202.5,470.2,208.9,469.1,215.6z"/>
<path class="st5" d="M385.9,189.6l89.4,14.5c6.8,1.1,11.3,7.5,10.2,14.2s-7.5,11.3-14.2,10.2L381.9,214c-6.8-1.1-11.3-7.5-10.2-14.2
	C372.8,193.1,379.2,188.5,385.9,189.6z"/>
<path class="st6" d="M469.1,215.6c-1.1,6.8-7.5,11.4-14.2,10.3l16.4,2.7c6.8,1.1,13.1-3.5,14.2-10.2c1.1-6.8-3.5-13.1-10.2-14.2
	l-16.4-2.7C465.6,202.5,470.2,208.9,469.1,215.6z"/>
<path class="st6" d="M382.1,214l89.4,14.5c6.8,1.1,11.3,7.5,10.2,14.2s-7.5,11.3-14.2,10.2l-89.4-14.5c-6.8-1.1-11.3-7.5-10.2-14.2
	C368.9,217.5,375.3,212.9,382.1,214z"/>
<path class="st7" d="M465.3,240.1c-1.1,6.8-7.5,11.4-14.2,10.3l16.4,2.7c6.8,1.1,13.1-3.5,14.2-10.2c1.1-6.8-3.5-13.1-10.2-14.2
	l-16.4-2.7C461.8,227,466.4,233.4,465.3,240.1z"/>
<path class="st1" d="M100.5,459.3c16,12.3,33.5,22.7,52.2,30.9l-46.3-284.9l-46,7.5L100.5,459.3z"/>
<path class="st2" d="M106.4,205.3L90,208l44.4,273.3c6,3.2,12.1,6.2,18.3,9L106.4,205.3z"/>
<path class="st3" d="M65.6,12.3L38,16.8c-3.9,0.6-6.5,4.3-5.9,8.1l30.5,187.5l41.6-6.8L73.7,18.2C73.1,14.3,69.5,11.7,65.6,12.3z"/>
<path class="st4" d="M52.9,21.6l30.5,187.5l-20.8,3.4L32.2,25c-0.6-3.9,2-7.5,5.9-8.1l20.8-3.4C54.9,14.1,52.3,17.7,52.9,21.6z"/>
<path class="st5" d="M126.1,189.6l-89.4,14.5c-6.8,1.1-11.3,7.5-10.2,14.2s7.5,11.3,14.2,10.2l89.4-14.5c6.8-1.1,11.3-7.5,10.2-14.2
	C139.2,193.1,132.8,188.5,126.1,189.6z"/>
<path class="st6" d="M42.9,215.6c1.1,6.8,7.5,11.4,14.2,10.3l-16.4,2.7c-6.8,1.1-13.1-3.5-14.2-10.2c-1.1-6.8,3.5-13.1,10.2-14.2
	l16.4-2.7C46.4,202.5,41.8,208.9,42.9,215.6z"/>
<path class="st5" d="M126.1,189.6l-89.4,14.5c-6.8,1.1-11.3,7.5-10.2,14.2s7.5,11.3,14.2,10.2l89.4-14.5c6.8-1.1,11.3-7.5,10.2-14.2
	C139.2,193.1,132.8,188.5,126.1,189.6z"/>
<path class="st6" d="M42.9,215.6c1.1,6.8,7.5,11.4,14.2,10.3l-16.4,2.7c-6.8,1.1-13.1-3.5-14.2-10.2c-1.1-6.8,3.5-13.1,10.2-14.2
	l16.4-2.7C46.4,202.5,41.8,208.9,42.9,215.6z"/>
<path class="st6" d="M129.9,214l-89.4,14.5c-6.8,1.1-11.3,7.5-10.2,14.2s7.5,11.3,14.2,10.2l89.4-14.5c6.8-1.1,11.3-7.5,10.2-14.2
	C143.1,217.5,136.7,212.9,129.9,214z"/>
<path class="st7" d="M46.7,240.1c1.1,6.8,7.5,11.4,14.2,10.3L44.6,253c-6.8,1.1-13.1-3.5-14.2-10.2c-1.1-6.8,3.5-13.1,10.2-14.2
	l16.4-2.7C50.2,227,45.6,233.4,46.7,240.1z"/>
<path class="st4" d="M124.2,329.9l-31.3-14.2c-6.9-3.1-10-11.3-6.8-18.2l78.6-172.9c3.1-6.9,11.3-10,18.2-6.8l31.3,14.2
	c6.9,3.1,10,11.3,6.8,18.2l-78.6,172.9C139.2,330,131.1,333,124.2,329.9z"/>
<path class="st4" d="M387.8,329.9l31.3-14.2c6.9-3.1,10-11.3,6.8-18.2l-78.6-172.9c-3.1-6.9-11.3-10-18.2-6.8L297.9,132
	c-6.9,3.1-10,11.3-6.8,18.2l78.6,172.9C372.8,330,380.9,333,387.8,329.9z"/>
<path class="st8" d="M373.8,362h-64.5V239H202.7v123h-64.5c-36.5,0-68.3,22.3-81.7,54.5C103.5,474.7,175.4,512,256,512
	s152.5-37.3,199.5-95.5C442.1,384.2,410.3,362,373.8,362z"/>
<path class="st2" d="M256,0.1c73.5,0,133.1,59.6,133.1,133.1v75.5c0,73.5-59.6,133.1-133.1,133.1s-133.1-59.6-133.1-133.1v-75.5
	C122.9,59.7,182.5,0.1,256,0.1z"/>
<path class="st1" d="M152.9,208.7v-75.5C152.9,64.8,204.6,8.4,271,1c-4.9-0.6-9.9-0.8-15-0.8c-73.5,0-133.1,59.6-133.1,133.1v75.5
	c0,73.5,59.6,133.1,133.1,133.1c5.1,0,10.1-0.3,15-0.8C204.6,333.5,152.9,277.1,152.9,208.7z"/>
<path class="st9" d="M320.3,214l-51.2-20c-8.4-3.3-17.7-3.3-26.1,0l-51.2,20c-23.5,9.2-48.9-8.2-48.9-33.4
	c0-19.8,16.1-35.9,35.9-35.9h154.7c19.8,0,35.9,16.1,35.9,35.9C369.2,205.8,343.8,223.2,320.3,214z"/>
<path class="st10" d="M172.8,180.6c0-19.8,16.1-35.9,35.9-35.9h-30c-19.8,0-35.9,16.1-35.9,35.9c0,25.3,25.4,42.6,48.9,33.4l2-0.8
	C181.6,207.6,172.8,195.5,172.8,180.6z"/>
<path class="st3" d="M117.9,133.2v13.1c0,2.9,2.3,5.2,5.2,5.2h265.8c2.9,0,5.2-2.3,5.2-5.2v-13.1c0-19.3-4.1-37.7-11.5-54.3
	c-0.8-1.9-2.7-3.1-4.7-3.1H134.2c-2.1,0-3.9,1.2-4.7,3.1C122.1,95.5,117.9,113.8,117.9,133.2z"/>
<path class="st4" d="M147.9,146.3v-13.1c0-19.3,4.1-37.7,11.5-54.3c0.8-1.9,2.7-3.1,4.7-3.1h-30c-2.1,0-3.9,1.2-4.7,3.1
	c-7.4,16.6-11.5,34.9-11.5,54.3v13.1c0,2.9,2.3,5.2,5.2,5.2h30C150.2,151.5,147.9,149.2,147.9,146.3z"/>
<path class="st4" d="M369.2,121.2H142.8c-4.1,0-7.5-3.4-7.5-7.5c0-4.1,3.4-7.5,7.5-7.5h226.3c4.1,0,7.5,3.4,7.5,7.5
	C376.7,117.8,373.3,121.2,369.2,121.2z"/>
<path class="st5" d="M309.2,159.8H202.8c-4.8,0-8.8-3.9-8.8-8.8V76.2c0-4.8,3.9-8.8,8.8-8.8h106.5c4.8,0,8.8,3.9,8.8,8.8v74.8
	C318,155.9,314.1,159.8,309.2,159.8z"/>
<path class="st6" d="M224,151.1V76.2c0-4.8,3.9-8.8,8.8-8.8h-30c-4.8,0-8.8,3.9-8.8,8.8v74.8c0,4.8,3.9,8.8,8.8,8.8h30
	C227.9,159.8,224,155.9,224,151.1z"/>
</svg>
